<svg width="241" height="216" viewBox="0 0 241 216" fill="none" xmlns="http://www.w3.org/2000/svg">
<g clip-path="url(#clip0_1035_2)">
<path d="M211.12 59.1123C211.12 59.1123 214.139 71.8857 214.016 79.2137C213.893 86.5417 213.663 87.4003 210.88 92.6363C208.097 97.8723 209.729 96.9283 205.888 100.96C202.047 104.992 201.932 105.422 193.852 111.539C186.835 116.851 179.015 122.468 176.141 126.118C174.048 128.778 161.789 133.315 155.572 137.631C149.353 141.947 135.14 153.782 130.012 157.468C124.883 161.158 99.0774 169.886 93.0588 175.174C87.0401 180.463 78.0708 188.183 72.7108 192.728C67.3508 197.275 46.7828 208.787 40.4801 211.7C34.1774 214.615 6.67209 209.086 4.78542 205.819C2.90009 202.554 2.10942 198.77 6.51076 199.38C10.0601 199.87 11.4934 197.955 16.0481 196.414C20.6014 194.874 30.2321 186.41 38.2588 177.056C46.2868 167.703 55.5788 153.63 60.7388 148.11C65.9001 142.59 68.5974 135.951 78.1121 127.918C87.6268 119.884 86.6841 118.251 93.5601 113.192C100.015 108.444 105.023 104.762 111.156 99.0417C117.289 93.323 122.073 90.9243 125.661 82.683C129.392 74.1163 132.608 67.0617 140.635 57.7097C148.661 48.3577 150.985 44.8377 157.403 41.495C163.82 38.1537 175.532 33.9323 180.485 34.3377C185.439 34.7443 187.04 35.6337 191.188 39.0457C195.335 42.459 191.963 37.8737 193.472 44.259C194.981 50.6457 194.008 50.8443 199.557 54.1723C205.108 57.5003 211.117 59.111 211.117 59.111L211.12 59.1123Z" fill="#FF0000" stroke="black" stroke-width="6.66667"/>
<path d="M193.451 39.1928C193.451 39.1928 193.098 47.3808 195.842 50.8768C198.586 54.3728 202.334 55.8368 207.171 56.6728C212.008 57.5088 212.951 59.1422 213.956 57.1102C214.96 55.0795 210.186 50.5782 217.607 45.2048C225.027 39.8315 231.299 38.7515 234.656 31.3688C237.418 25.3008 238.906 22.3835 236.652 15.3395C233.874 6.65283 225.443 2.21416 220.262 2.66616C215.08 3.11683 215.938 3.34749 215.592 4.63549C215.247 5.92349 214.758 9.47283 216.474 9.93283C218.191 10.3928 219.594 10.3088 222.422 15.2075C225.251 20.1062 227.796 22.6288 223.495 28.3782C219.194 34.1275 217.216 36.3582 209.856 38.0675C203.304 39.5888 193.451 39.1928 193.451 39.1928Z" fill="#99FF66" stroke="black" stroke-width="5.33333"/>
<path opacity="0.5" d="M42.8535 201.984C59.6135 192.671 74.8855 182.039 88.0415 169" stroke="black" stroke-width="2.66667"/>
<path opacity="0.5" d="M150.371 129.567C157.991 125.167 181.252 113.915 190.368 103.934" stroke="black" stroke-width="2.66667"/>
<g opacity="0.75">
<path d="M156.529 55.0662C164.611 48.9489 167.447 46.9489 175.005 46.2129L178.087 55.3209C170.099 55.9409 168.351 57.3142 163.42 61.9742L156.529 55.0662Z" fill="white"/>
</g>
</g>
<defs>
<clipPath id="clip0_1035_2">
<rect width="240.403" height="215.856" fill="white"/>
</clipPath>
</defs>
</svg>
